<svg width="50" height="50" viewBox="0 0 50 50" fill="none" xmlns="http://www.w3.org/2000/svg">
<g filter="url(#filter0_d_1035_4814)">
<path d="M6 11C6 6.58172 9.58172 3 14 3H36C40.4183 3 44 6.58172 44 11V33C44 37.4183 40.4183 41 36 41H14C9.58172 41 6 37.4183 6 33V11Z" fill="white"/>
<path d="M28 28L22 22L28 16" stroke="#9D9D9D" stroke-width="2" stroke-linecap="round" stroke-linejoin="round"/>
<path d="M14 6H36V0H14V6ZM41 11V33H47V11H41ZM36 38H14V44H36V38ZM9 33V11H3V33H9ZM14 38C11.2386 38 9 35.7614 9 33H3C3 39.0751 7.92487 44 14 44V38ZM41 33C41 35.7614 38.7614 38 36 38V44C42.0751 44 47 39.0751 47 33H41ZM36 6C38.7614 6 41 8.23858 41 11H47C47 4.92487 42.0751 0 36 0V6ZM14 0C7.92487 0 3 4.92487 3 11H9C9 8.23858 11.2386 6 14 6V0Z" fill="white"/>
</g>
<defs>
<filter id="filter0_d_1035_4814" x="0" y="0" width="50" height="50" filterUnits="userSpaceOnUse" color-interpolation-filters="sRGB">
<feFlood flood-opacity="0" result="BackgroundImageFix"/>
<feColorMatrix in="SourceAlpha" type="matrix" values="0 0 0 0 0 0 0 0 0 0 0 0 0 0 0 0 0 0 127 0" result="hardAlpha"/>
<feOffset dy="3"/>
<feGaussianBlur stdDeviation="3"/>
<feComposite in2="hardAlpha" operator="out"/>
<feColorMatrix type="matrix" values="0 0 0 0 0 0 0 0 0 0 0 0 0 0 0 0 0 0 0.09 0"/>
<feBlend mode="normal" in2="BackgroundImageFix" result="effect1_dropShadow_1035_4814"/>
<feBlend mode="normal" in="SourceGraphic" in2="effect1_dropShadow_1035_4814" result="shape"/>
</filter>
</defs>
</svg>
