<svg width="50" height="50" viewBox="0 0 50 50" fill="none" xmlns="http://www.w3.org/2000/svg">
<g filter="url(#filter0_d_1035_4815)">
<path d="M44 11C44 6.58172 40.4183 3 36 3H14C9.58172 3 6 6.58172 6 11V33C6 37.4183 9.58172 41 14 41H36C40.4183 41 44 37.4183 44 33V11Z" fill="white"/>
<path d="M22 28L28 22L22 16" stroke="#9D9D9D" stroke-width="2" stroke-linecap="round" stroke-linejoin="round"/>
<path d="M36 6H14V0H36V6ZM9 11V33H3V11H9ZM14 38H36V44H14V38ZM41 33V11H47V33H41ZM36 38C38.7614 38 41 35.7614 41 33H47C47 39.0751 42.0751 44 36 44V38ZM9 33C9 35.7614 11.2386 38 14 38V44C7.92487 44 3 39.0751 3 33H9ZM14 6C11.2386 6 9 8.23858 9 11H3C3 4.92487 7.92487 0 14 0V6ZM36 0C42.0751 0 47 4.92487 47 11H41C41 8.23858 38.7614 6 36 6V0Z" fill="white"/>
</g>
<defs>
<filter id="filter0_d_1035_4815" x="0" y="0" width="50" height="50" filterUnits="userSpaceOnUse" color-interpolation-filters="sRGB">
<feFlood flood-opacity="0" result="BackgroundImageFix"/>
<feColorMatrix in="SourceAlpha" type="matrix" values="0 0 0 0 0 0 0 0 0 0 0 0 0 0 0 0 0 0 127 0" result="hardAlpha"/>
<feOffset dy="3"/>
<feGaussianBlur stdDeviation="3"/>
<feComposite in2="hardAlpha" operator="out"/>
<feColorMatrix type="matrix" values="0 0 0 0 0 0 0 0 0 0 0 0 0 0 0 0 0 0 0.09 0"/>
<feBlend mode="normal" in2="BackgroundImageFix" result="effect1_dropShadow_1035_4815"/>
<feBlend mode="normal" in="SourceGraphic" in2="effect1_dropShadow_1035_4815" result="shape"/>
</filter>
</defs>
</svg>
